# xmcd CD database file
#
# Track frame offsets:
#	150
#	17008
#	39645
#	50391
#	67249
#
# Disc length: 1195 seconds
#
# Revision: 0
# Processed by: cddbd v1.5.2PL0 Copyright (c) Steve Scherf et al.
# Submitted via: CD2WAV32(JP) R3.22
#
DISCID=4004a905
DTITLE=牧野由依 - スケッチブックを持ったまま
DYEAR=2007
DGENRE=Anime
TTITLE0=スケッチブックを持ったまま
TTITLE1=遠くまで行こう
TTITLE2=6つの小品 Op.118 間奏曲 イ長調
TTITLE3=スケッチブックを持ったまま -instrumental-
TTITLE4=遠くまで行こう -instrumental-
EXTD=
EXTT0=「スケッチブック」 エンディングテーマ
EXTT1=「スケッチブック」 挿入歌
EXTT2=「スケッチブック」 プロモーションムービーテーマソング
EXTT3=
EXTT4=
PLAYORDER=
